<svg width="14" height="14" viewBox="0 0 14 14" fill="none" xmlns="http://www.w3.org/2000/svg">
<path d="M7.83334 1.16668C7.83334 0.70644 7.46025 0.333344 7.00001 0.333344C6.53977 0.333344 6.16668 0.70644 6.16668 1.16668V6.1666L1.16668 6.1666C0.706439 6.1666 0.333344 6.53969 0.333344 6.99993C0.333344 7.46017 0.706439 7.83327 1.16668 7.83326L6.16668 7.83327V12.8333C6.16668 13.2936 6.53977 13.6667 7.00001 13.6667C7.46025 13.6667 7.83334 13.2936 7.83334 12.8333V7.83327L12.8333 7.83327C13.2936 7.83327 13.6667 7.46017 13.6667 6.99993C13.6667 6.5397 13.2936 6.1666 12.8333 6.1666L7.83334 6.1666V1.16668Z" fill="white"/>
</svg>
