<svg width="131" height="25" viewBox="0 0 131 25" fill="none" xmlns="http://www.w3.org/2000/svg">
<path d="M6.23617 25C10.0157 25 11.5653 23.4012 12.17 21.439H12.2078C12.17 22.7471 12.0944 24.1642 12.0566 24.7093H21.203V14.5349C21.203 9.84738 18.3306 6.46802 10.6204 6.46802C3.40155 6.46802 0.566924 9.12064 0.566924 13.1177C0.566924 13.5901 0.604719 14.0625 0.642514 14.4985H8.2771C8.2393 14.2078 8.2393 13.9171 8.2393 13.8445C8.2393 12.6817 8.84402 12.1003 10.1668 12.1003C11.4897 12.1003 12.0566 12.7907 12.0566 13.9535V15.407H5.89601C1.62518 15.407 0 17.4419 0 20.0581C0 22.3474 1.32282 25 6.23617 25ZM9.90228 20.7122C8.91961 20.7122 8.31489 20.2035 8.31489 19.3677C8.31489 18.532 8.80623 18.1323 9.94008 18.1323H12.0566V18.6773C12.0188 19.9491 11.1495 20.7122 9.90228 20.7122Z" fill="#3981F6"/>
<path d="M28.1664 24.7093H39.2781L46.119 6.75872H37.086L34.5915 16.9695H34.4782L31.9837 6.75872H21.3255L28.1664 24.7093Z" fill="#3981F6"/>
<path d="M47.5821 5.37791H56.8041V0H47.5821V5.37791ZM47.5821 24.7093H56.7285V6.75872H47.5821V24.7093Z" fill="#3981F6"/>
<path d="M64.8848 25C68.6643 25 70.2139 23.4012 70.8186 21.439H70.8564C70.8186 22.7471 70.743 24.1642 70.7052 24.7093H79.8516V14.5349C79.8516 9.84738 76.9792 6.46802 69.269 6.46802C62.0502 6.46802 59.2156 9.12064 59.2156 13.1177C59.2156 13.5901 59.2533 14.0625 59.2911 14.4985H66.9257C66.8879 14.2078 66.8879 13.9171 66.8879 13.8445C66.8879 12.6817 67.4927 12.1003 68.8155 12.1003C70.1383 12.1003 70.7052 12.7907 70.7052 13.9535V15.407H64.5446C60.2738 15.407 58.6486 17.4419 58.6486 20.0581C58.6486 22.3474 59.9714 25 64.8848 25ZM68.5509 20.7122C67.5682 20.7122 66.9635 20.2035 66.9635 19.3677C66.9635 18.532 67.4549 18.1323 68.5887 18.1323H70.7052V18.6773C70.6674 19.9491 69.7981 20.7122 68.5509 20.7122Z" fill="#3981F6"/>
<path d="M92.3786 24.9637C95.0242 24.9637 96.8006 24.7456 97.4431 24.6003V18.4956C97.1785 18.5683 96.1581 18.641 95.1376 18.641C93.1345 18.641 92.5675 18.1686 92.5675 16.9331V13.2994H97.7077V6.75872H92.5675V2.68895H85.0841L84.8574 4.79651C84.6684 6.28634 84.1015 6.75872 82.9676 6.75872H81.1157V13.2994H83.4212V18.0959C83.4212 22.2747 85.8022 24.9637 92.3786 24.9637Z" fill="#3981F6"/>
<path d="M110.066 25C118.003 25 121.329 21.0756 121.329 15.7703C121.329 10.4651 117.965 6.46802 110.066 6.46802C102.091 6.46802 98.7653 10.4651 98.7653 15.7703C98.7653 21.0756 102.053 25 110.066 25ZM110.066 19.0407C108.592 19.0407 107.912 17.9142 107.912 15.734C107.912 13.4811 108.592 12.4273 110.066 12.4273C111.502 12.4273 112.183 13.4811 112.183 15.734C112.183 17.9506 111.464 19.0407 110.066 19.0407Z" fill="#3981F6"/>
<path d="M123.365 24.7093H131V17.4419H123.365V24.7093Z" fill="#3981F6"/>
</svg>
