<svg width="24" height="25" viewBox="0 0 24 25" fill="none" xmlns="http://www.w3.org/2000/svg">
<path fill-rule="evenodd" clip-rule="evenodd" d="M13.7712 1.48422C12.6941 0.78414 11.3058 0.784141 10.2288 1.48422L1.5621 7.11755C0.639774 7.71706 0.083313 8.74245 0.083313 9.84249V21.6667C0.083313 23.4616 1.53839 24.9167 3.33331 24.9167H20.6666C22.4616 24.9167 23.9166 23.4616 23.9166 21.6667V9.84249C23.9166 8.74245 23.3602 7.71706 22.4379 7.11755L13.7712 1.48422ZM11.4096 3.30085C11.7686 3.06749 12.2314 3.06749 12.5904 3.30085L21.257 8.93418C21.5645 9.13402 21.75 9.47581 21.75 9.84249V21.6667C21.75 22.265 21.265 22.75 20.6666 22.75H16.3331L16.3333 14.5833C16.3333 12.3217 14.183 10.8333 12.0001 10.8333C9.81714 10.8333 7.66683 12.3217 7.66682 14.5833L7.66665 22.75L8.94695 22.75H3.33331C2.735 22.75 2.24998 22.265 2.24998 21.6667V9.84249C2.24998 9.47581 2.43547 9.13402 2.74291 8.93418L11.4096 3.30085ZM9.83331 22.75H15.4468L14.1665 22.75L14.1666 14.5833C14.1666 13.8994 13.4069 13 12.0001 13C10.5932 13 9.83348 13.8994 9.83348 14.5833L9.83331 22.75Z" fill="#3981F6"/>
</svg>
