<svg width="24" height="24" viewBox="0 0 24 24" fill="none" xmlns="http://www.w3.org/2000/svg">
<path d="M6.58331 7.66667C6.58331 7.06836 7.06834 6.58334 7.66665 6.58334H16.3333C16.9316 6.58334 17.4166 7.06836 17.4166 7.66667C17.4166 8.26498 16.9316 8.75 16.3333 8.75H7.66665C7.06834 8.75 6.58331 8.26498 6.58331 7.66667Z" fill="white"/>
<path d="M7.66665 10.9167C7.06834 10.9167 6.58331 11.4017 6.58331 12C6.58331 12.5983 7.06834 13.0833 7.66665 13.0833H12C12.5983 13.0833 13.0833 12.5983 13.0833 12C13.0833 11.4017 12.5983 10.9167 12 10.9167H7.66665Z" fill="white"/>
<path fill-rule="evenodd" clip-rule="evenodd" d="M2.11379 3.22703C3.90843 1.18767 7.00495 0.0833359 12 0.0833359C16.995 0.0833359 20.0915 1.18767 21.8862 3.22703C23.6607 5.24359 23.9166 7.91351 23.9166 10.375C23.9166 12.837 23.6574 15.4496 22.2212 17.4332C20.8 19.3962 18.412 20.5135 14.7558 20.5883L12.9076 23.4247C12.7077 23.7316 12.3662 23.9167 12 23.9167C11.6337 23.9167 11.2923 23.7316 11.0923 23.4247L9.24058 20.5828C5.58682 20.4752 3.20124 19.3587 1.78044 17.4073C0.342634 15.4326 0.083313 12.8375 0.083313 10.375C0.083313 7.91351 0.339214 5.24359 2.11379 3.22703ZM3.74034 4.65839C2.53574 6.02724 2.24998 7.96149 2.24998 10.375C2.24998 12.7875 2.53233 14.759 3.53202 16.132C4.47329 17.4248 6.24044 18.4247 9.83331 18.4247H10.4204L12 20.8489L13.5833 18.4189L14.1774 18.4248C17.7638 18.4604 19.5263 17.4608 20.4662 16.1626C21.4676 14.7795 21.75 12.788 21.75 10.375C21.75 7.96149 21.4642 6.02724 20.2596 4.65839C19.0751 3.31233 16.755 2.25 12 2.25C7.245 2.25 4.92486 3.31233 3.74034 4.65839Z" fill="white"/>
</svg>
