<svg width="19" height="19" viewBox="0 0 19 19" fill="none" xmlns="http://www.w3.org/2000/svg">
<path fill-rule="evenodd" clip-rule="evenodd" d="M14.2739 15.6192C12.8374 16.7947 11.0011 17.5 9.00001 17.5C4.39763 17.5 0.666672 13.769 0.666672 9.16668C0.666672 4.5643 4.39763 0.833344 9.00001 0.833344C13.6024 0.833344 17.3333 4.5643 17.3333 9.16668C17.3333 11.1677 16.628 13.0041 15.4524 14.4406L17.9226 16.9108C18.248 17.2363 18.248 17.7639 17.9226 18.0893C17.5972 18.4148 17.0695 18.4148 16.7441 18.0893L14.2739 15.6192ZM15.6667 9.16668C15.6667 12.8486 12.6819 15.8333 9.00001 15.8333C5.31811 15.8333 2.33334 12.8486 2.33334 9.16668C2.33334 5.48478 5.31811 2.50001 9.00001 2.50001C12.6819 2.50001 15.6667 5.48478 15.6667 9.16668Z" fill="black"/>
</svg>
