<svg width="24" height="24" viewBox="0 0 24 24" fill="none" xmlns="http://www.w3.org/2000/svg">
<path fill-rule="evenodd" clip-rule="evenodd" d="M8.74998 1.16667C8.74998 0.568358 9.235 0.083333 9.83331 0.083333H14.1666C14.765 0.083333 15.25 0.568358 15.25 1.16667V22.8333C15.25 23.4316 14.765 23.9167 14.1666 23.9167H9.83331C9.235 23.9167 8.74998 23.4316 8.74998 22.8333V1.16667ZM10.9166 2.25V21.75H13.0833V2.25H10.9166Z" fill="white"/>
<path fill-rule="evenodd" clip-rule="evenodd" d="M17.4166 8.75C17.4166 8.15169 17.9017 7.66667 18.5 7.66667H22.8333C23.4316 7.66667 23.9166 8.15169 23.9166 8.75V22.8333C23.9166 23.4316 23.4316 23.9167 22.8333 23.9167H18.5C17.9017 23.9167 17.4166 23.4316 17.4166 22.8333V8.75ZM19.5833 9.83333V21.75H21.75V9.83333H19.5833Z" fill="white"/>
<path fill-rule="evenodd" clip-rule="evenodd" d="M0.083313 13.0833C0.083313 12.485 0.568338 12 1.16665 12H5.49998C6.09829 12 6.58331 12.485 6.58331 13.0833V22.8333C6.58331 23.4316 6.09829 23.9167 5.49998 23.9167H1.16665C0.568338 23.9167 0.083313 23.4316 0.083313 22.8333V13.0833ZM2.24998 14.1667V21.75H4.41665V14.1667H2.24998Z" fill="white"/>
</svg>
